<svg width="235" height="228" xmlns="http://www.w3.org/2000/svg" xmlns:xlink="http://www.w3.org/1999/xlink" xml:space="preserve" overflow="hidden"><defs><clipPath id="clip0"><rect x="527" y="87" width="235" height="228"/></clipPath></defs><g clip-path="url(#clip0)" transform="translate(-527 -87)"><path d="M11.7455 32.4727C20.0364 16.5818 38 4.14545 56.6545 4.14545 115.382 4.14545 172.036 4.14545 226.618 4.14545 228.691 4.14545 230.073 5.52727 230.073 7.6 229.382 53.2 229.382 103.636 230.073 160.291 230.764 197.6 205.891 220.4 169.273 219.709 116.073 219.018 62.1818 219.018 8.29091 219.709 6.90909 219.709 6.21818 219.018 6.21818 217.636 6.21818 217.636 6.21818 167.2 6.90909 67.0182 5.52727 51.1273 7.6 40.0727 11.7455 32.4727ZM128.509 127.127C137.491 119.527 146.473 111.236 154.764 102.255 156.145 100.873 157.527 100.182 158.909 99.4909 160.982 98.8 162.364 99.4909 163.745 100.182 165.818 101.564 167.891 101.564 169.964 100.873 181.709 98.8 187.927 91.8909 188.618 81.5273 189.309 73.9273 183.782 68.4 181.709 61.4909 177.564 46.9818 159.6 44.2182 148.545 52.5091 142.327 57.3455 140.255 64.9454 143.018 72.5455L148.545 85.6727C149.927 88.4364 149.236 90.5091 147.855 93.2727 145.782 96.0364 143.709 98.8 140.255 101.564 138.182 102.945 136.109 102.945 134.727 101.564L107.782 75.3091C106.4 73.9273 105.709 71.8545 105.709 69.0909 109.164 55.2727 103.636 46.2909 88.4364 42.1455 85.6727 41.4545 83.6 41.4545 80.8364 42.8364 76.6909 46.2909 71.8545 48.3636 65.6364 49.7455 38 58.0364 55.9636 98.1091 80.1455 85.6727 86.3636 82.2182 94.6545 78.0727 101.564 82.9091 104.327 84.9818 105.709 87.0546 107.091 89.8182 107.782 91.8909 107.091 93.9636 105.709 95.3455L80.1455 120.218C78.0727 122.291 75.3091 122.982 72.5455 122.291 39.3818 112.618 36.6182 165.818 69.0909 160.291 83.6 157.527 89.1273 149.236 85.6727 133.345 84.9818 131.273 85.6727 129.2 87.7455 127.818L95.3455 121.6C97.4182 119.527 99.4909 120.218 101.564 121.6L127.127 145.782C129.2 147.855 129.891 149.927 130.582 152.691 130.582 157.527 128.509 160.982 130.582 165.818 139.564 190 157.527 177.564 173.418 172.036 182.4 169.273 187.236 159.6 184.473 150.618 178.945 130.582 159.6 133.345 145.782 141.636 142.327 143.709 139.564 143.018 137.491 140.945L130.582 134.036C125.745 131.964 125.745 129.891 128.509 127.127Z" fill="#126E39" transform="matrix(1.00039 0 0 1 527 87)"/><path d="M96.7273 62.1818C96.7273 67.5239 92.3966 71.8545 87.0546 71.8545 81.7124 71.8545 77.3818 67.5239 77.3818 62.1818 77.3818 56.8397 81.7125 52.5091 87.0546 52.5091 92.3967 52.5091 96.7273 56.8397 96.7273 62.1818Z" fill="#126E39" transform="matrix(1.00039 0 0 1 527 87)"/><path d="M178.255 82.2182C178.255 87.5603 173.924 91.8909 168.582 91.8909 163.24 91.8909 158.909 87.5603 158.909 82.2182 158.909 76.8761 163.24 72.5455 168.582 72.5455 173.924 72.5455 178.255 76.8761 178.255 82.2182Z" fill="#126E39" transform="matrix(1.00039 0 0 1 527 87)"/><path d="M120.218 100.873 127.818 107.782C129.2 109.164 129.2 111.927 127.818 113.309L120.218 120.909C118.836 122.291 116.073 122.291 114.691 120.909L107.091 114C105.709 112.618 105.709 109.855 107.091 108.473L114.691 100.873C116.073 99.4909 118.836 99.4909 120.218 100.873Z" fill="#126E39" transform="matrix(1.00039 0 0 1 527 87)"/><path d="M76 140.945C76 146.288 71.6694 150.618 66.3273 150.618 60.9852 150.618 56.6546 146.288 56.6546 140.945 56.6546 135.603 60.9852 131.273 66.3273 131.273 71.6694 131.273 76 135.603 76 140.945Z" fill="#126E39" transform="matrix(1.00039 0 0 1 527 87)"/><path d="M158.218 160.982C158.218 166.324 153.888 170.655 148.545 170.655 143.203 170.655 138.873 166.324 138.873 160.982 138.873 155.64 143.203 151.309 148.545 151.309 153.888 151.309 158.218 155.64 158.218 160.982Z" fill="#126E39" transform="matrix(1.00039 0 0 1 527 87)"/><path d="M-868.473 98.1091C-855.345 72.5455-827.018 51.8182-797.309 51.8182-705.418 51.8182-616.982 51.8182-531.309 51.8182-527.855 51.8182-525.782 53.8909-525.782 57.3455-527.164 131.964-527.164 214.873-525.782 306.764-525.091 367.564-563.091 404.873-621.818 404.182-705.418 403.491-789.709 402.8-874.691 403.491-876.764 403.491-878.145 402.109-878.145 400.036-878.145 400.036-878.145 317.818-877.455 153.382-878.145 129.2-874.691 110.545-868.473 98.1091ZM-685.382 253.564C-671.564 241.127-657.745 227.309-643.927 212.8-641.855 210.727-639.782 209.345-637.018 208.655-634.255 207.964-631.491 208.655-628.727 210.036-625.964 212.109-622.509 212.109-619.055 211.418-600.4 207.273-590.727 196.909-590.036 179.636-589.345 167.891-597.636 158.218-600.4 147.164-607.309 122.982-634.945 118.836-652.218 132.655-661.891 140.255-665.345 153.382-661.2 165.127L-652.909 186.545C-651.527 190.691-651.527 194.836-654.291 198.982-657.745 203.818-661.2 208.655-666.036 212.109-669.491 214.873-672.255 214.873-675.018 211.418L-717.855 168.582C-720.618 165.818-721.309 162.364-720.618 158.909-715.782 136.109-724.073 120.909-747.564 114.691-751.709 113.309-755.164 114-759.309 116.073-766.909 120.218-775.2 123.673-784.182 126.436-827.018 139.564-798.691 205.2-760.691 185.164-751.018 179.636-737.891 172.727-727.527 181.018-723.382 184.473-720.618 187.927-719.236 192.764-717.855 196.218-718.545 199.673-721.309 201.745L-761.382 242.509C-764.836 245.964-769.673 246.655-773.818 245.273-824.945 229.382-829.091 315.745-778.655 307.455-755.164 303.309-746.873 288.8-753.091 263.236-753.782 259.782-753.091 256.327-750.327 254.255L-738.582 243.891C-735.127 241.127-732.364 241.127-728.909 243.891L-688.836 283.964C-686.073 286.727-684 290.873-684 295.018-684 302.618-687.455 308.145-684.691 315.745-670.873 355.818-642.545 335.091-617.673 326.109-603.855 321.273-596.255 306.073-599.709 291.564-608.691 259.091-638.4 263.236-660.509 277.055-665.345 280.509-670.182 279.818-673.636 275.673L-684 264.618C-689.527 261.164-689.527 257.709-685.382 253.564Z" fill="#126E39" transform="matrix(1.00039 0 0 1 527 87)"/><path d="M-734.436 147.164C-734.436 155.94-741.551 163.055-750.327 163.055-759.104 163.055-766.218 155.94-766.218 147.164-766.218 138.387-759.104 131.273-750.327 131.273-741.551 131.273-734.436 138.387-734.436 147.164Z" fill="#126E39" transform="matrix(1.00039 0 0 1 527 87)"/><path d="M-606.618 179.636C-606.618 188.413-613.423 195.527-621.818 195.527-630.213 195.527-637.018 188.413-637.018 179.636-637.018 170.86-630.213 163.745-621.818 163.745-613.423 163.745-606.618 170.86-606.618 179.636Z" fill="#126E39" transform="matrix(1.00039 0 0 1 527 87)"/><path d="M-698.509 210.727-686.764 222.473C-684 225.236-684 229.382-686.764 231.455L-698.509 243.891C-700.582 246.655-704.727 246.655-707.491 243.891L-719.236 232.145C-722 229.382-722 225.236-719.236 223.164L-707.491 210.727C-704.727 208.655-700.582 208.655-698.509 210.727Z" fill="#126E39" transform="matrix(1.00039 0 0 1 527 87)"/><path d="M-767.6 276.364C-767.6 285.14-774.405 292.255-782.8 292.255-791.195 292.255-798 285.14-798 276.364-798 267.587-791.195 260.473-782.8 260.473-774.405 260.473-767.6 267.587-767.6 276.364Z" fill="#126E39" transform="matrix(1.00039 0 0 1 527 87)"/><path d="M-637.709 308.836C-637.709 317.613-644.824 324.727-653.6 324.727-662.376 324.727-669.491 317.613-669.491 308.836-669.491 300.06-662.376 292.945-653.6 292.945-644.824 292.945-637.709 300.06-637.709 308.836Z" fill="#126E39" transform="matrix(1.00039 0 0 1 527 87)"/></g></svg>